HIERARCHY
ROOT Pelvis
{
	OFFSET 0.000000 0.941512 0.000000
	CHANNELS 6 Xposition Yposition Zposition Zrotation Yrotation Xrotation 
	JOINT Pelvis_L_Hip
	{
		OFFSET 0.000000 0.000000 0.000000
		CHANNELS 3 Zrotation Yrotation Xrotation
		JOINT L_Hip
		{
			OFFSET 0.062321 -0.080322 -0.016990
			CHANNELS 3 Zrotation Yrotation Xrotation
			JOINT L_Knee
			{
				OFFSET 0.093051 -0.381305 -0.029784
				CHANNELS 3 Zrotation Yrotation Xrotation
				JOINT L_Ankle
				{
					OFFSET -0.010371 -0.431000 -0.033614
					CHANNELS 3 Zrotation Yrotation Xrotation
					End Site #name: L_Foot
					{
						OFFSET 0.069299 -0.038670 0.119418
					}
				}
			}
		}
	}
	JOINT Pelvis_R_Hip
	{
		OFFSET 0.000000 0.000000 0.000000
		CHANNELS 3 Zrotation Yrotation Xrotation
		JOINT R_Hip
		{
			OFFSET -0.055334 -0.094904 -0.002373
			CHANNELS 3 Zrotation Yrotation Xrotation
			JOINT R_Knee
			{
				OFFSET -0.064207 -0.384370 -0.019592
				CHANNELS 3 Zrotation Yrotation Xrotation
				JOINT R_Ankle
				{
					OFFSET 0.025418 -0.419734 -0.065953
					CHANNELS 3 Zrotation Yrotation Xrotation
					End Site #name: R_Foot
					{
						OFFSET -0.057233 -0.039888 0.132134
					}
				}
			}
		}
	}
	JOINT Pelvis_Spine1
	{
		OFFSET 0.000000 0.000000 0.000000
		CHANNELS 3 Zrotation Yrotation Xrotation
		JOINT Spine1
		{
			OFFSET -0.005562 0.124093 -0.043360
			CHANNELS 3 Zrotation Yrotation Xrotation
			JOINT Spine2
			{
				OFFSET 0.012244 0.139499 0.029894
				CHANNELS 3 Zrotation Yrotation Xrotation
				JOINT Spine3
				{
					OFFSET -0.002556 0.056561 0.009225
					CHANNELS 3 Zrotation Yrotation Xrotation
					JOINT Spine3_Neck
					{
						OFFSET 0.000000 0.000000 0.000000
						CHANNELS 3 Zrotation Yrotation Xrotation
						JOINT Neck
						{
							OFFSET -0.005205 0.217920 -0.024551
							CHANNELS 3 Zrotation Yrotation Xrotation
							End Site #name: Head
							{
								OFFSET 0.002365 0.091850 0.046637
							}
						}
					}
					JOINT Spine3_L_Collar
					{
						OFFSET 0.000000 0.000000 0.000000
						CHANNELS 3 Zrotation Yrotation Xrotation
						JOINT L_Collar
						{
							OFFSET 0.072225 0.116603 -0.009480
							CHANNELS 3 Zrotation Yrotation Xrotation
							JOINT L_Shoulder
							{
								OFFSET 0.115937 -0.058643 -0.021018
								CHANNELS 3 Zrotation Yrotation Xrotation
								JOINT L_Elbow
								{
									OFFSET 0.021994 -0.254722 -0.024492
									CHANNELS 3 Zrotation Yrotation Xrotation
									End Site #name: L_Wrist
									{
										OFFSET 0.048810 -0.240214 0.103329
									}
								}
							}
						}
					}
					JOINT Spine3_R_Collar
					{
						OFFSET 0.000000 0.000000 0.000000
						CHANNELS 3 Zrotation Yrotation Xrotation
						JOINT R_Collar
						{
							OFFSET -0.073372 0.120704 -0.024611
							CHANNELS 3 Zrotation Yrotation Xrotation
							JOINT R_Shoulder
							{
								OFFSET -0.108089 -0.054969 -0.020504
								CHANNELS 3 Zrotation Yrotation Xrotation
								JOINT R_Elbow
								{
									OFFSET -0.033684 -0.260739 0.009889
									CHANNELS 3 Zrotation Yrotation Xrotation
									End Site #name: R_Wrist
									{
										OFFSET -0.067980 -0.232763 0.118463
									}
								}
							}
						}
					}
				}
			}
		}
	}
}
MOTION
Frames: 15
Frame Time: 0.041667
0.000000 0.267369 0.000000 1.627579 3.347919 -69.148850 0.000000 0.000000 0.000000 24.772933 -6.601746 -62.114388 -7.920868 15.341000 148.844927 3.726559 12.918874 1.466914 0.000000 0.000000 0.000000 -18.259237 0.999356 -69.007866 9.376717 -4.341177 147.886825 2.256330 7.356345 0.263688 0.000000 0.000000 0.000000 -7.524180 -0.880953 70.767265 1.126705 0.063122 7.086482 1.194340 1.957604 18.084351 0.000000 0.000000 0.000000 -6.263954 3.727527 9.186336 0.000000 0.000000 0.000000 30.668279 -8.659252 -0.678116 -37.386433 8.375064 7.393088 -10.549083 -2.330777 7.411330 0.000000 0.000000 0.000000 -38.649076 4.846916 3.015129 39.949339 -4.341810 9.490482 -9.147454 -6.761269 12.384156 
0.011107 0.257503 0.016536 0.501175 2.389098 -66.871220 0.000000 0.000000 0.000000 26.950508 -5.880722 -66.456668 -7.034962 15.038623 152.041346 3.861601 11.837430 0.276826 0.000000 0.000000 0.000000 -19.537361 0.381283 -72.799915 8.958955 -3.145852 149.904035 3.037047 10.418666 0.062896 0.000000 0.000000 0.000000 -7.738964 -0.727265 70.767206 1.064176 0.140664 8.852136 1.261060 3.164889 18.345011 0.000000 0.000000 0.000000 -6.858859 3.977315 6.618427 0.000000 0.000000 0.000000 29.401602 -8.007832 -0.056393 -37.226234 7.919847 6.424217 -9.642381 -2.090236 7.089771 0.000000 0.000000 0.000000 -37.721281 7.818415 -0.483644 37.862458 -3.890877 8.942563 -9.775504 -7.308104 14.371921 
0.019864 0.252653 0.027015 -0.586583 1.425796 -63.955445 0.000000 0.000000 0.000000 28.574151 -5.108122 -69.974564 -6.549550 15.242812 153.759829 4.432795 12.116759 -0.757261 0.000000 0.000000 0.000000 -20.652769 -0.259419 -75.821036 8.891369 -4.291222 150.523915 2.967153 11.039005 -0.454919 0.000000 0.000000 0.000000 -8.415545 -0.124357 72.221197 0.336004 0.320048 8.827431 1.498146 4.918185 18.263377 0.000000 0.000000 0.000000 -7.361079 4.186349 5.240449 0.000000 0.000000 0.000000 28.141590 -7.537930 0.432285 -36.598346 6.860268 4.353554 -7.895790 -1.261431 7.756061 0.000000 0.000000 0.000000 -37.918204 11.435052 -4.673259 36.374786 -3.695608 8.879694 -9.994404 -7.065272 12.395759 
0.026465 0.253182 0.034290 -1.629644 0.808891 -60.394733 0.000000 0.000000 0.000000 29.820242 -4.389139 -72.806473 -6.482836 16.596342 154.266408 5.390278 13.734647 -1.596869 0.000000 0.000000 0.000000 -21.735129 -1.102449 -78.142363 9.009986 -6.561067 150.244331 2.479677 10.380519 -1.103127 0.000000 0.000000 0.000000 -9.343825 0.720506 73.539339 -0.637549 0.526044 8.184004 1.581878 6.648132 18.391997 0.000000 0.000000 0.000000 -7.298616 4.052961 3.230048 0.000000 0.000000 0.000000 26.884533 -7.454236 0.533218 -34.953075 5.339772 1.513813 -5.760622 -0.250792 8.732693 0.000000 0.000000 0.000000 -38.924092 14.667476 -8.586018 34.723290 -2.581781 6.833705 -8.744959 -5.905670 8.348736 
0.031563 0.261937 0.036786 -2.486354 0.687867 -56.051886 0.000000 0.000000 0.000000 30.573015 -3.863637 -74.675779 -7.081395 19.840298 153.020118 6.770377 17.047040 -1.989154 0.000000 0.000000 0.000000 -22.345664 -1.832904 -79.078685 9.391472 -9.769830 148.630924 1.165562 7.655663 -2.354030 0.000000 0.000000 0.000000 -10.681269 1.972191 74.542268 -1.650535 0.764641 8.118854 1.553682 8.083025 17.452374 0.000000 0.000000 0.000000 -6.725691 3.630786 0.305091 0.000000 0.000000 0.000000 26.077156 -7.907007 0.164705 -32.773299 3.585806 -1.860291 -3.240803 0.812113 9.616930 0.000000 0.000000 0.000000 -40.509782 17.851794 -12.598973 33.771816 -0.285591 2.059414 -9.359830 -6.172578 8.476880 
0.033736 0.279247 0.034058 -2.987887 1.211349 -51.019726 0.000000 0.000000 0.000000 30.587041 -3.831064 -75.936292 -8.359725 23.737120 149.779919 8.316086 21.369707 -1.670212 0.000000 0.000000 0.000000 -22.128590 -2.129505 -79.444810 9.944950 -12.677257 145.827941 -0.527668 3.252957 -3.532894 0.000000 0.000000 0.000000 -12.058265 3.214257 75.988070 -2.741269 0.914505 6.605065 1.234250 8.963370 16.806359 0.000000 0.000000 0.000000 -6.030850 3.198244 -2.885336 0.000000 0.000000 0.000000 25.807639 -9.133540 -0.856533 -29.046448 1.962311 -5.040438 -1.692122 1.402880 9.990965 0.000000 0.000000 0.000000 -43.402047 20.393960 -16.243218 32.733588 1.336989 -1.409145 -8.900551 -5.436252 5.384907 
0.033839 0.308026 0.025504 -3.162700 2.259413 -45.352408 0.000000 0.000000 0.000000 29.612134 -4.497697 -76.520700 -10.479241 27.413100 144.219787 9.944244 26.278136 -0.435128 0.000000 0.000000 0.000000 -20.947746 -1.830234 -78.982228 10.537892 -14.116129 141.544178 -2.249934 -1.653228 -4.514862 0.000000 0.000000 0.000000 -13.550635 4.553849 77.765133 -3.633556 0.931331 4.320857 1.040927 9.536076 16.606451 0.000000 0.000000 0.000000 -5.205982 2.758932 -5.784195 0.000000 0.000000 0.000000 26.039879 -10.763169 -2.204970 -23.286457 0.486922 -8.321380 -2.955493 0.731710 8.874770 0.000000 0.000000 0.000000 -46.839142 21.453248 -18.389542 30.297506 2.882522 -5.148505 -7.110221 -3.977260 2.011079 
0.033623 0.344721 0.014963 -3.312506 3.389772 -39.868527 0.000000 0.000000 0.000000 28.322139 -5.394888 -76.361861 -12.920050 29.293319 137.375419 11.182501 29.882841 0.920156 0.000000 0.000000 0.000000 -18.983914 -0.939693 -77.846950 10.780636 -13.517258 136.512036 -3.623081 -5.749898 -5.140082 0.000000 0.000000 0.000000 -14.920740 5.791187 79.484527 -3.990656 0.819267 2.084055 1.381360 9.865116 16.514024 0.000000 0.000000 0.000000 -5.065436 2.656454 -8.604140 0.000000 0.000000 0.000000 27.786284 -11.697024 -2.805123 -18.697155 -0.885627 -12.957529 -2.750047 0.530313 7.663044 0.000000 0.000000 0.000000 -50.630670 21.687340 -19.618917 26.148750 3.910368 -8.539260 -6.036110 -2.596716 -1.931896 
0.033910 0.389208 0.004319 -3.138688 4.640447 -34.711281 0.000000 0.000000 0.000000 26.723216 -6.438863 -75.242883 -15.624754 29.896099 129.374959 12.053161 32.453477 2.356338 0.000000 0.000000 0.000000 -17.138112 -0.113066 -75.928309 10.367347 -10.740749 130.778408 -4.372703 -7.897270 -5.478970 0.000000 0.000000 0.000000 -15.984642 6.671653 80.739311 -3.922112 0.683571 0.558467 2.079853 10.151524 16.283060 0.000000 0.000000 0.000000 -5.402179 2.760380 -10.646112 0.000000 0.000000 0.000000 30.196046 -12.665154 -3.408011 -14.176371 -1.977601 -18.204295 -1.232361 0.789296 6.331634 0.000000 0.000000 0.000000 -54.450749 21.588830 -20.467116 20.548389 4.197468 -11.145920 -7.211878 -2.217874 -6.488154 
0.035799 0.439251 -0.005147 -2.991149 5.851215 -30.005651 0.000000 0.000000 0.000000 24.769328 -7.613157 -73.389185 -17.786048 28.651663 121.237088 12.459253 33.835026 3.566407 0.000000 0.000000 0.000000 -15.385935 0.639297 -73.031424 9.333051 -7.168309 124.035031 -4.573277 -8.581379 -5.378415 0.000000 0.000000 0.000000 -16.680709 7.070723 81.679383 -3.587142 0.557577 -0.339936 2.989787 10.326307 15.542490 0.000000 0.000000 0.000000 -5.643125 2.826406 -11.587270 0.000000 0.000000 0.000000 32.721105 -14.261102 -4.722459 -9.685799 -2.485300 -22.432272 0.669373 1.242771 5.055605 0.000000 0.000000 0.000000 -59.020010 21.788368 -21.996844 13.661553 4.245960 -14.721580 -10.015945 -3.742086 -6.788425 
0.039691 0.490384 -0.011609 -2.865547 6.966256 -25.361378 0.000000 0.000000 0.000000 22.941799 -8.588850 -71.426186 -19.406208 26.582042 113.275469 12.649286 34.552790 4.374255 0.000000 0.000000 0.000000 -14.101392 1.097388 -70.160583 7.986258 -4.153249 116.775618 -4.554460 -8.797488 -5.052673 0.000000 0.000000 0.000000 -16.932965 6.801891 81.262662 -3.214921 0.433896 -1.213424 3.798844 10.604494 14.706628 0.000000 0.000000 0.000000 -5.198721 2.624031 -12.504880 0.000000 0.000000 0.000000 35.016289 -15.337962 -5.584762 -4.847431 -2.679319 -27.323562 2.674396 1.995428 5.057110 0.000000 0.000000 0.000000 -63.294573 22.078678 -23.852177 6.807583 3.753320 -17.927512 -12.382508 -5.767077 -2.313402 
0.045835 0.538838 -0.014920 -2.686277 7.833399 -21.113908 0.000000 0.000000 0.000000 21.354239 -9.263138 -69.376282 -20.616723 24.388919 105.777585 12.668751 34.819009 4.921022 0.000000 0.000000 0.000000 -13.473391 1.231439 -67.382265 6.715310 -2.184271 109.656568 -4.472952 -8.605090 -4.921996 0.000000 0.000000 0.000000 -16.680322 5.883637 78.843549 -2.906902 0.349427 -1.751161 3.957225 10.722154 14.831462 0.000000 0.000000 0.000000 -5.079819 2.550221 -14.314493 0.000000 0.000000 0.000000 37.742240 -15.438619 -5.393726 0.356656 -2.384643 -32.822294 4.536832 2.447080 3.387930 0.000000 0.000000 0.000000 -65.393662 21.614971 -23.929022 0.560187 2.901278 -20.721568 -14.917517 -7.491159 1.329111 
0.053802 0.585258 -0.014953 -2.474451 8.399264 -17.760390 0.000000 0.000000 0.000000 19.608073 -9.766102 -66.555179 -21.299957 21.971535 98.872752 12.569535 34.715977 5.135531 0.000000 0.000000 0.000000 -13.273477 1.215417 -63.922674 5.589762 -0.936577 102.487708 -4.313987 -7.990402 -4.944076 0.000000 0.000000 0.000000 -16.259992 4.952407 75.419380 -2.749059 0.336152 -1.609602 4.194457 10.715868 14.460183 0.000000 0.000000 0.000000 -5.810590 2.787883 -15.559026 0.000000 0.000000 0.000000 40.149205 -15.999086 -5.740798 5.670133 -1.515062 -36.575508 7.576660 3.243952 -0.012232 0.000000 0.000000 0.000000 -66.118803 21.426620 -23.979688 -4.592691 1.649550 -19.855722 -17.365835 -8.377943 -0.959186 
0.064042 0.630316 -0.010221 -2.050669 8.747126 -14.612216 0.000000 0.000000 0.000000 17.617322 -10.177465 -63.409212 -21.542012 19.532007 92.337816 12.368650 34.275155 5.034702 0.000000 0.000000 0.000000 -13.708900 0.949318 -60.322199 4.803626 -0.388637 95.337217 -4.136324 -7.095033 -5.154123 0.000000 0.000000 0.000000 -15.511406 3.884590 70.652316 -2.851767 0.362099 -1.466069 3.962425 10.432669 14.146764 0.000000 0.000000 0.000000 -6.647791 3.083923 -15.697596 0.000000 0.000000 0.000000 42.316611 -16.914710 -6.590905 10.484201 -0.423530 -38.934216 11.860800 4.896767 -2.511809 0.000000 0.000000 0.000000 -65.565602 20.932396 -23.030915 -6.098928 1.240642 -18.897701 -20.368185 -9.402483 -6.731171 
0.076072 0.677059 -0.000531 -1.823119 9.008964 -12.240021 0.000000 0.000000 0.000000 15.149120 -10.464639 -59.010631 -20.910778 16.423055 85.937976 11.918390 33.155137 4.512743 0.000000 0.000000 0.000000 -14.087278 0.784241 -55.416175 4.075800 -0.100318 87.394249 -3.819196 -5.966662 -5.174712 0.000000 0.000000 0.000000 -14.717793 2.973312 65.578062 -2.906844 0.368096 -1.504108 3.447326 10.100047 14.421561 0.000000 0.000000 0.000000 -7.101223 3.161211 -17.732191 0.000000 0.000000 0.000000 43.714768 -17.068320 -6.603473 14.647122 0.711254 -40.873347 14.700321 6.047075 -6.291617 0.000000 0.000000 0.000000 -64.040633 20.111696 -21.322637 -5.147766 1.481240 -19.319728 -23.598584 -10.895365 -13.393250 
